<?xml version="1.0" encoding="UTF-8" standalone="no"?>
<svg
   xmlns:dc="http://purl.org/dc/elements/1.1/"
   xmlns:cc="http://creativecommons.org/ns#"
   xmlns:rdf="http://www.w3.org/1999/02/22-rdf-syntax-ns#"
   xmlns:svg="http://www.w3.org/2000/svg"
   xmlns="http://www.w3.org/2000/svg"
   xmlns:sodipodi="http://sodipodi.sourceforge.net/DTD/sodipodi-0.dtd"
   xmlns:inkscape="http://www.inkscape.org/namespaces/inkscape"
   inkscape:version="1.0 (4035a4fb49, 2020-05-01)"
   sodipodi:docname="favicon.svg"
   id="svg36"
   preserveAspectRatio="xMidYMid meet"
   viewBox="0 0 716.000000 716.000000"
   height="716.000000pt"
   width="716.000000pt"
   version="1.0">
  <metadata
     id="metadata42">
    <rdf:RDF>
      <cc:Work
         rdf:about="">
        <dc:format>image/svg+xml</dc:format>
        <dc:type
           rdf:resource="http://purl.org/dc/dcmitype/StillImage" />
        <dc:title></dc:title>
      </cc:Work>
    </rdf:RDF>
  </metadata>
  <defs
     id="defs40" />
  <sodipodi:namedview
     inkscape:current-layer="layer2"
     inkscape:window-maximized="0"
     inkscape:window-y="22"
     inkscape:window-x="252"
     inkscape:cy="374.16129"
     inkscape:cx="697.40142"
     inkscape:zoom="0.54440309"
     showgrid="false"
     id="namedview38"
     inkscape:window-height="967"
     inkscape:window-width="1633"
     inkscape:pageshadow="2"
     inkscape:pageopacity="0"
     guidetolerance="10"
     gridtolerance="10"
     objecttolerance="10"
     borderopacity="1"
     bordercolor="#666666"
     pagecolor="#ffffff"
     inkscape:document-rotation="0" />
  <g
     inkscape:groupmode="layer"
     id="layer1"
     inkscape:label="Layer 1" />
  <g
     inkscape:groupmode="layer"
     id="layer2"
     inkscape:label="Layer 2">
    <path
       d="m 448.57341,36.153942 c -5.74932,2.19021 -157.42184,151.124938 -363.575967,356.731538 -56.67185,56.67185 -59.68339,61.32607 -53.11274,81.85934 3.01154,8.48711 51.1963,59.40963 56.39807,59.40963 1.09511,0 8.76088,-3.83288 16.700407,-8.48709 41.61411,-23.54483 88.42998,-2.46399 95.82198,43.25679 1.91643,13.14129 -2.73779,31.48435 -11.49865,44.35188 -3.55911,5.47554 -6.57065,11.49864 -6.57065,13.68887 0,4.6542 42.98299,48.7323 52.56519,53.93406 9.03466,4.65422 26.00883,4.928 34.49592,0.27378 3.5591,-2.19021 97.46465,-94.72687 208.61814,-205.88036 144.00674,-143.73298 203.41637,-205.05903 205.6066,-211.35591 5.20176,-15.6053 -0.82134,-26.83014 -28.47282,-53.66031 -25.1875,-24.36616 -31.75814,-27.37771 -40.51903,-19.43817 -19.16438,17.24796 -57.76695,14.78395 -78.84779,-5.20178 -21.35461,-20.53327 -25.46126,-49.00609 -10.67731,-78.02646 l 8.76087,-16.974166 -24.36616,-24.913712 c -13.68885,-13.68887 -27.92525,-26.55639 -32.03192,-28.7466 -8.48709,-4.38043 -19.71194,-4.65421 -29.29414,-0.82133 z m 38.32879,39.69768 18.34306,18.069292 -5.47554,12.593726 c -18.61684,41.8879 -1.09511,90.07267 40.51901,110.33218 15.87907,7.93953 21.3546,9.03463 37.78123,9.03463 13.68887,-0.27376 23.27108,-1.91643 32.85326,-6.29686 l 13.68887,-6.0231 18.61683,18.61683 c 10.12976,10.12977 18.61685,20.25951 18.61685,22.7235 0,2.19023 -16.42664,20.80706 -36.68615,40.7928 -34.22213,33.94835 -37.78124,36.9599 -47.36342,36.9599 -10.12976,0.27378 -10.40355,0.54755 -10.40355,10.40352 0,10.12977 -5.20176,15.60531 -153.04137,163.44492 -84.32335,84.32335 -155.50539,153.86273 -158.51694,154.68405 -4.10664,1.09511 -10.6773,-3.55911 -25.46127,-17.79552 l -19.71195,-19.43816 6.84441,-15.05773 c 18.34308,-40.24523 -1.91642,-92.26289 -43.53054,-110.33217 -20.2595,-9.03464 -47.63719,-9.03464 -67.34916,-0.27378 l -14.510187,6.57066 -19.16438,-18.89062 c -10.40353,-10.40353 -18.89062,-20.80707 -18.89062,-22.99727 0,-2.46401 70.086947,-74.46739 155.779167,-159.88581 136.06718,-135.24589 156.60048,-154.95785 161.25469,-152.49385 7.93954,4.38044 17.79551,-3.83288 16.15284,-13.14129 -1.3689,-6.29689 3.01155,-11.49864 34.49591,-43.530556 22.17595,-22.175942 38.05502,-36.138582 41.61412,-36.138582 3.01155,0 13.41507,7.93954 23.54483,18.06929 z"
       id="path6-4-7"
       style="fill:#f8f5f2;fill-opacity:1;stroke:none;stroke-width:0.273777" />
    <path
       d="M 430.23035,19.584652 C 424.48103,21.774862 272.80851,170.70958 66.65438,376.31618 9.98253,432.98803 6.97099,437.64225 13.54164,458.17552 c 3.01154,8.48711 51.1963,59.40963 56.39807,59.40963 1.09511,0 8.76088,-3.83288 16.70041,-8.48709 41.61411,-23.54483 88.42998,-2.46399 95.82198,43.25679 1.91643,13.14129 -2.73779,31.48435 -11.49865,44.35188 -3.55911,5.47554 -6.57065,11.49864 -6.57065,13.68887 0,4.6542 42.98299,48.7323 52.56519,53.93406 9.03466,4.65422 26.00883,4.928 34.49592,0.27378 3.5591,-2.19021 97.46465,-94.72687 208.61814,-205.88036 144.00674,-143.73297 203.41637,-205.05902 205.6066,-211.3559 5.20176,-15.6053 -0.82134,-26.83014 -28.47282,-53.66031 -25.1875,-24.36616 -31.75814,-27.37771 -40.51903,-19.43817 -19.16438,17.24796 -57.76695,14.78395 -78.84779,-5.20178 C 496.4844,148.53365 492.37775,120.06083 507.1617,91.040462 l 8.76087,-16.97416 -24.36616,-24.91372 c -13.68885,-13.68886 -27.92525,-26.55639 -32.03192,-28.7466 -8.48709,-4.38044 -19.71194,-4.65422 -29.29414,-0.82133 z m 38.32879,39.69769 18.34306,18.06928 -5.47554,12.59372 c -18.61684,41.887898 -1.09511,90.072668 40.51901,110.332178 15.87907,7.93953 21.3546,9.03463 37.78123,9.03463 13.68887,-0.27376 23.27108,-1.91643 32.85326,-6.29686 l 13.68887,-6.0231 18.61683,18.61683 c 10.12976,10.12977 18.61685,20.25951 18.61685,22.7235 0,2.19023 -16.42664,20.80706 -36.68615,40.7928 -34.22213,33.94835 -37.78124,36.9599 -47.36342,36.9599 -10.12976,0.27378 -10.40355,0.54755 -10.40355,10.40352 0,10.12977 -5.20176,15.60531 -153.04137,163.44492 -84.32335,84.32335 -155.50539,153.86273 -158.51694,154.68405 -4.10664,1.09511 -10.6773,-3.55911 -25.46127,-17.79552 l -19.71195,-19.43816 6.84441,-15.05773 c 18.34308,-40.24523 -1.91642,-92.26289 -43.53054,-110.33217 -20.2595,-9.03464 -47.63719,-9.03464 -67.34916,-0.27378 L 73.77258,488.29101 54.6082,469.40039 C 44.20467,458.99686 35.71758,448.59332 35.71758,446.40312 c 0,-2.46401 70.08695,-74.46739 155.77917,-159.88581 136.06718,-135.24588 156.60048,-154.95785 161.25469,-152.49385 7.93954,4.38045 17.79551,-3.83287 16.15284,-13.14128 -1.3689,-6.29689 3.01155,-11.49863 34.49591,-43.530558 22.17595,-22.17594 38.05502,-36.13857 41.61412,-36.13857 3.01155,0 13.41507,7.93953 23.54483,18.06929 z"
       id="path6-4-4"
       style="fill:#f8f5f2;fill-opacity:1;stroke:none;stroke-width:0.273777" />
    <path
       style="fill:#f8f5f2;fill-opacity:1;stroke:none;stroke-width:0.273777"
       id="path6-4"
       d="M 464.62051,52.108535 C 458.87119,54.298745 307.19868,203.23347 101.04455,408.84006 44.3727,465.51191 41.36116,470.16613 47.93181,490.6994 c 3.01154,8.48711 51.1963,59.40963 56.39807,59.40963 1.09511,0 8.76088,-3.83287 16.70041,-8.48709 41.61411,-23.54483 88.42998,-2.46399 95.82197,43.25678 1.91643,13.1413 -2.73778,31.48436 -11.49864,44.35188 -3.55911,5.47554 -6.57065,11.49865 -6.57065,13.68887 0,4.6542 42.98299,48.73231 52.56519,53.93407 9.03466,4.65421 26.00883,4.92799 34.49592,0.27377 3.5591,-2.19021 97.46464,-94.72686 208.61813,-205.88035 144.00678,-143.73297 203.41638,-205.05902 205.60658,-211.35591 5.2018,-15.60529 -0.8213,-26.83014 -28.4728,-53.6603 -25.1875,-24.36616 -31.7581,-27.37771 -40.519,-19.43817 -19.1644,17.24795 -57.767,14.78395 -78.8478,-5.20178 -21.3546,-20.53327 -25.46128,-49.00609 -10.6773,-78.02646 l 8.7608,-16.97417 -24.36612,-24.913705 c -13.68885,-13.68887 -27.92525,-26.55639 -32.03192,-28.7466 -8.48709,-4.38044 -19.71194,-4.65422 -29.29414,-0.82133 z m 38.32879,39.69768 18.34306,18.069285 -5.47554,12.59373 c -18.61684,41.8879 -1.09511,90.07267 40.51897,110.33218 15.8791,7.93952 21.3546,9.03463 37.7813,9.03463 13.6888,-0.27377 23.271,-1.91643 32.8532,-6.29687 l 13.6889,-6.02309 18.6168,18.61683 c 10.1298,10.12976 18.6169,20.25951 18.6169,22.7235 0,2.19022 -16.4267,20.80706 -36.6862,40.7928 -34.2221,33.94834 -37.7812,36.9599 -47.3634,36.9599 -10.1297,0.27378 -10.4035,0.54754 -10.4035,10.40351 0,10.12977 -5.2018,15.60531 -153.04141,163.44492 -84.32334,84.32335 -155.50538,153.86272 -158.51693,154.68405 -4.10665,1.0951 -10.67731,-3.55911 -25.46128,-17.79552 l -19.71194,-19.43816 6.84441,-15.05774 c 18.34308,-40.24523 -1.91642,-92.26288 -43.53054,-110.33216 -20.2595,-9.03464 -47.6372,-9.03464 -67.34916,-0.27378 l -14.51019,6.57066 -19.16439,-18.89062 C 78.59484,491.52074 70.10775,481.1172 70.10775,478.927 c 0,-2.46401 70.08694,-74.46739 155.77916,-159.88581 C 361.9541,183.79531 382.48739,164.08335 387.1416,166.54735 c 7.93954,4.38044 17.79551,-3.83288 16.15285,-13.14129 -1.3689,-6.29689 3.01154,-11.49864 34.4959,-43.53056 22.17595,-22.175945 38.05502,-36.138575 41.61412,-36.138575 3.01155,0 13.41507,7.93954 23.54483,18.06929 z" />
    <path
       d="m 442.89389,59.077427 c -5.3606,2.042133 -146.77834,140.907203 -338.99415,332.612483 -52.840202,52.8402 -55.648135,57.17974 -49.521735,76.32474 2.807934,7.91327 47.734865,55.39287 52.584935,55.39287 1.02107,0 8.16854,-3.57374 15.57127,-7.91327 38.80053,-21.95293 82.45114,-2.2974 89.34334,40.33214 1.78686,12.2528 -2.55267,29.35566 -10.7212,41.3532 -3.31847,5.10533 -6.1264,10.7212 -6.1264,12.76333 0,4.33954 40.07686,45.43747 49.0112,50.28754 8.4238,4.33953 24.25033,4.5948 32.1636,0.25526 3.31847,-2.04213 90.87494,-88.32227 194.51321,-191.96054 C 604.98823,334.51017 660.3811,277.33044 662.42324,271.4593 c 4.85006,-14.5502 -0.7658,-25.01613 -26.54774,-50.03226 -23.48453,-22.71874 -29.61093,-25.52667 -37.77947,-18.12394 -17.86866,16.0818 -53.86127,13.7844 -73.5168,-4.85007 -19.9108,-19.145 -23.7398,-45.69273 -9.9554,-72.751 l 8.16853,-15.82653 -22.71873,-23.229272 c -12.76334,-12.763334 -26.0372,-24.760868 -29.8662,-26.803001 -7.91327,-4.084267 -18.3792,-4.339534 -27.31354,-0.7658 z m 35.73734,37.013668 17.10287,16.847605 -5.10534,11.74226 c -17.35813,39.05581 -1.02107,83.98274 37.77947,102.87248 14.80547,7.40273 19.9108,8.4238 35.2268,8.4238 12.76334,-0.25527 21.69767,-1.78687 30.632,-5.87114 l 12.76334,-5.61586 17.35813,17.35813 c 9.44487,9.44487 17.35814,18.88973 17.35814,21.18713 0,2.04214 -15.316,19.40027 -34.20574,38.03474 -31.90833,31.65307 -35.2268,34.461 -44.16113,34.461 -9.44487,0.25527 -9.70014,0.51053 -9.70014,9.70013 0,9.44487 -4.85007,14.55021 -142.69407,152.39421 -78.62214,78.62214 -144.99148,143.45988 -147.79941,144.22568 -3.829,1.02106 -9.9554,-3.31847 -23.7398,-16.59234 l -18.3792,-18.12393 6.38166,-14.03967 c 17.10287,-37.5242 -1.78686,-86.02487 -40.5874,-102.87247 -18.88973,-8.4238 -44.4164,-8.4238 -62.7956,-0.25527 l -13.52914,6.1264 -17.868663,-17.6134 c -9.700134,-9.70013 -17.613401,-19.40027 -17.613401,-21.4424 0,-2.2974 65.348274,-69.43254 145.246744,-149.07574 C 347.16889,181.8607 366.31389,163.4815 370.65342,165.7789 c 7.40274,4.08427 16.59234,-3.57373 15.06074,-12.2528 -1.27634,-5.87114 2.80793,-10.7212 32.1636,-40.5874 20.6766,-20.676605 35.48207,-33.695206 38.80053,-33.695206 2.80794,0 12.50807,7.402734 21.95294,16.847601 z"
       id="path6"
       style="fill:#078080;fill-opacity:1;stroke:none;stroke-width:0.255267" />
    <path
       d="m 403.32756,181.8607 c -7.40274,4.08427 -4.85007,14.5502 6.1264,25.52667 7.658,7.658 11.487,9.9554 17.10286,9.1896 5.61587,-0.51054 7.40274,-2.2974 7.91327,-8.16854 0.7658,-5.61586 -1.27633,-9.44486 -8.4238,-16.8476 -10.46593,-10.7212 -16.33707,-13.27386 -22.71873,-9.70013 z"
       id="path8"
       style="fill:#078080;fill-opacity:1;stroke:none;stroke-width:0.255267" />
    <path
       d="m 454.63616,233.67984 c -6.63693,4.85006 -5.3606,12.76333 3.829,23.22926 10.7212,12.2528 19.145,15.316 25.2714,9.70014 7.40273,-6.63694 5.87113,-11.74227 -5.87113,-23.22927 -13.0186,-12.2528 -17.35814,-14.03967 -23.22927,-9.70013 z"
       id="path10"
       style="fill:#078080;fill-opacity:1;stroke:none;stroke-width:0.255267" />
    <path
       d="m 504.41316,286.52004 c -5.10533,5.10533 -3.57373,11.487 5.10534,21.4424 9.70013,10.97647 18.3792,14.80547 25.2714,11.23173 8.16853,-4.5948 5.87113,-13.7844 -6.63694,-25.2714 -11.74226,-10.7212 -18.3792,-12.76333 -23.7398,-7.40273 z"
       id="path12"
       style="fill:#078080;fill-opacity:1;stroke:none;stroke-width:0.255267" />
    <path
       d="m 361.97435,311.02564 c -12.76333,10.7212 -24.76086,21.18713 -26.803,22.71873 -3.31846,2.80794 -9.44486,0.7658 -35.2268,-10.97646 -17.10287,-7.91327 -31.65307,-14.03967 -31.90833,-13.52914 -0.51054,0.51054 5.10533,15.316 12.76333,32.67414 l 13.7844,31.65307 -17.35813,18.88973 c -9.44487,10.46593 -20.16607,22.71874 -23.99507,27.31354 l -6.63693,8.16853 23.22926,-2.04213 c 13.0186,-1.02107 28.84514,-2.2974 35.48207,-3.0632 l 11.99754,-1.27634 16.8476,30.632 c 9.44486,16.59234 17.35813,30.37674 17.86866,30.37674 1.27634,0 4.08427,-11.23174 11.487,-43.6506 l 5.36061,-24.25034 31.14253,-5.87113 c 17.10287,-3.31847 32.67414,-6.8922 34.20574,-7.658 2.04213,-1.02107 -8.67907,-8.93434 -26.03721,-19.145 -16.33706,-9.70014 -29.8662,-18.12394 -30.37673,-19.145 -0.51053,-0.7658 1.27633,-17.10287 3.829,-35.99261 2.55267,-18.88973 4.33953,-34.71626 3.829,-34.97153 -0.25527,-0.51053 -10.97647,8.16853 -23.48454,19.145 z m -7.14746,50.28754 -1.5316,13.7844 11.99753,7.14746 11.99754,6.8922 -14.29494,3.57374 c -14.29493,3.57373 -14.29493,3.57373 -16.0818,14.80546 -0.7658,6.12641 -2.2974,11.23174 -3.31847,11.23174 -1.02106,0 -4.33953,-4.5948 -7.658,-10.21067 -5.61586,-9.9554 -6.1264,-10.21067 -20.16606,-10.21067 h -14.55021 l 9.70014,-9.70013 9.44487,-9.9554 -4.33954,-10.7212 c -2.2974,-5.87113 -3.57373,-11.23173 -2.80793,-11.99753 0.7658,-0.7658 4.85007,0.51053 9.1896,2.55266 10.97647,5.87114 16.33707,5.10534 24.5056,-3.57373 4.08427,-4.33953 7.91327,-7.658 8.4238,-7.658 0.7658,0 0.51053,6.38167 -0.51053,14.03967 z"
       id="path14"
       style="fill:#078080;fill-opacity:1;stroke:none;stroke-width:0.255267" />
    <path
       transform="scale(0.74999998)"
       id="path1138"
       d="m 449.4175,544.98089 c -3.68552,-6.06702 -8.23729,-11.85317 -10.11505,-12.85812 -1.87775,-1.00494 -10.67896,-1.82717 -19.55824,-1.82717 h -16.14414 l 12.37743,-12.47301 12.37744,-12.47301 -4.61999,-11.36986 c -4.01441,-9.87953 -5.91995,-18.79034 -4.01823,-18.79034 0.33095,0 5.79807,2.11146 12.14914,4.69213 14.86976,6.04212 19.96308,4.92356 32.82932,-7.20978 9.83766,-9.27726 9.97497,-9.33736 8.93646,-3.91141 -0.58009,3.03084 -1.59237,11.47483 -2.2495,18.76443 l -1.19479,13.2538 7.98677,4.75106 c 4.39272,2.61308 11.18619,6.6491 15.0966,8.96893 l 7.10984,4.21788 -12.62046,3.08999 c -23.65808,5.79244 -23.52967,5.6636 -27.22487,27.31715 -0.64653,3.78856 -1.90479,6.88828 -2.79614,6.88828 -0.89135,0 -4.63607,-4.96392 -8.32159,-11.03095 z"
       style="opacity:1;fill:#f8f5f2;fill-opacity:1;stroke-width:117.56;stroke-linejoin:round" />
    <path
       transform="scale(0.74999998)"
       id="path1140"
       d="m 340.84493,850.66904 c -3.92953,-2.61433 -15.53764,-13.05935 -25.79579,-23.21116 l -18.6512,-18.45785 6.38406,-14.90398 c 16.05152,-37.47326 11.49301,-76.35458 -12.73086,-108.5865 -29.48304,-39.22965 -81.38522,-51.87399 -128.62882,-31.3364 l -14.01052,6.09062 -19.95365,-20.43987 c -10.9745,-11.24195 -21.43954,-22.71738 -23.25563,-25.50098 l -3.302,-5.06109 18.12713,-19.62172 c 52.31468,-56.62808 331.77208,-334.53114 360.15393,-358.15077 10.45367,-8.69964 11.96518,-9.38622 18.68059,-8.48549 9.7982,1.31421 16.76694,-5.10551 16.77713,-15.4554 0.004,-3.83447 1.73022,-9.86485 3.83653,-13.40083 4.81291,-8.07962 77.91049,-80.61371 85.61338,-84.95338 l 5.70212,-3.21248 10.74131,8.13833 c 5.90772,4.47608 17.17514,14.64711 25.03871,22.60229 l 14.2974,14.46396 -4.56724,10.00017 c -10.05138,22.00792 -13.39302,51.31059 -8.28488,72.64975 8.44419,35.27547 35.97693,64.18028 73.64953,77.31979 12.3591,4.31061 15.23983,4.61864 34.85089,3.72632 18.98038,-0.86363 23.20387,-1.70736 37.65592,-7.52246 l 16.27777,-6.54972 15.24523,15.09227 c 8.38489,8.30076 18.60824,19.42809 22.71855,24.72738 l 7.47329,9.6351 -3.31289,5.05989 c -5.46132,8.34126 -76.19672,79.16698 -84.67394,84.78205 -4.73379,3.13553 -11.70013,5.71479 -17.52043,6.48688 -10.80238,1.43299 -12.4177,2.95328 -12.45822,11.72529 -0.0353,7.61726 -2.06883,11.53733 -12.56368,24.21782 -20.79505,25.12576 -370.43488,372.88547 -374.90142,372.88547 -0.80723,0 -4.68276,-2.13898 -8.6123,-4.7533 z M 481.56294,601.82481 c 5.02949,-21.66116 9.77473,-41.36533 10.54498,-43.78708 1.29357,-4.0671 3.78382,-4.86917 32.62732,-10.50883 40.24584,-7.86913 56.02466,-11.7303 56.02466,-13.70957 0,-2.1678 -20.31698,-16.04494 -50.34552,-34.38758 l -24.96632,-15.25043 0.007,-7.7105 c 0.005,-4.24078 2.06755,-23.82907 4.58483,-43.52955 4.99436,-39.08606 5.344,-44.08498 3.08356,-44.08498 -0.82973,0 -16.68273,12.8122 -35.22885,28.47155 -18.54613,15.65935 -34.78182,28.47155 -36.0793,28.47155 -3.33275,0 -16.51289,-5.34824 -52.44471,-21.28103 -17.18669,-7.62088 -31.69526,-13.40942 -32.24127,-12.86341 -1.44186,1.44185 5.50335,19.75446 20.88713,55.07369 l 13.51644,31.03206 -14.22147,15.59935 c -39.01673,42.79692 -50.07517,56.41134 -46.31318,57.01771 3.41157,0.54987 60.94693,-3.86958 81.8571,-6.28766 l 9.35414,-1.08173 19.83361,35.5353 c 22.85641,40.9512 26.49008,46.54994 28.74692,44.2931 0.89544,-0.89544 5.74309,-19.35082 10.77258,-41.01196 z M 716.68859,423.7569 c 2.02057,-2.02056 3.67375,-5.5784 3.67375,-7.90631 0,-9.06856 -16.78559,-28.75096 -30.64688,-35.93586 -13.43674,-6.96482 -25.65456,3.63962 -19.94295,17.30944 9.45074,22.61877 35.88213,37.56669 46.91608,26.53273 z m -69.04606,-69.94217 c 5.74771,-6.83076 5.89492,-9.52143 0.95791,-17.50969 -4.94121,-7.99505 -25.15206,-26.25383 -30.56426,-27.6122 -11.56621,-2.90294 -21.01276,7.19097 -17.1364,18.31071 5.60039,16.06531 23.3134,32.46275 35.06721,32.46275 5.47231,0 7.91496,-1.18238 11.67554,-5.65157 z m -72.35154,-66.00885 c 4.28819,-2.29496 6.33902,-12.14496 3.87695,-18.62069 -4.65923,-12.2547 -24.63985,-29.11571 -34.50269,-29.11571 -6.99572,0 -13.50095,5.33884 -13.50095,11.08024 0,9.66808 12.77788,27.76887 24.7978,35.12785 6.1113,3.74153 14.02437,4.36721 19.32889,1.52831 z"
       style="opacity:1;fill:#f8f5f2;fill-opacity:1;stroke-width:117.56;stroke-linejoin:round" />
  </g>
</svg>
