<?xml version="1.0" encoding="UTF-8" standalone="no"?>
<svg
   xmlns:dc="http://purl.org/dc/elements/1.1/"
   xmlns:cc="http://creativecommons.org/ns#"
   xmlns:rdf="http://www.w3.org/1999/02/22-rdf-syntax-ns#"
   xmlns:svg="http://www.w3.org/2000/svg"
   xmlns="http://www.w3.org/2000/svg"
   xmlns:sodipodi="http://sodipodi.sourceforge.net/DTD/sodipodi-0.dtd"
   xmlns:inkscape="http://www.inkscape.org/namespaces/inkscape"
   inkscape:version="1.0 (4035a4fb49, 2020-05-01)"
   sodipodi:docname="favicon.svg"
   id="svg36"
   preserveAspectRatio="xMidYMid meet"
   viewBox="0 0 716.000000 716.000000"
   height="716.000000pt"
   width="716.000000pt"
   version="1.0">
  <metadata
     id="metadata42">
    <rdf:RDF>
      <cc:Work
         rdf:about="">
        <dc:format>image/svg+xml</dc:format>
        <dc:type
           rdf:resource="http://purl.org/dc/dcmitype/StillImage" />
        <dc:title />
      </cc:Work>
    </rdf:RDF>
  </metadata>
  <defs
     id="defs40" />
  <sodipodi:namedview
     inkscape:current-layer="layer2"
     inkscape:window-maximized="1"
     inkscape:window-y="-8"
     inkscape:window-x="-8"
     inkscape:cy="477.33333"
     inkscape:cx="477.33333"
     inkscape:zoom="0.76990223"
     showgrid="false"
     id="namedview38"
     inkscape:window-height="1017"
     inkscape:window-width="1920"
     inkscape:pageshadow="2"
     inkscape:pageopacity="0"
     guidetolerance="10"
     gridtolerance="10"
     objecttolerance="10"
     borderopacity="1"
     bordercolor="#666666"
     pagecolor="#ffffff"
     inkscape:document-rotation="0" />
  <g
     inkscape:groupmode="layer"
     id="layer1"
     inkscape:label="Layer 1">
    <ellipse
       style="opacity:1;fill:#f9f9f9;stroke-width:49.1167;stroke-linejoin:round"
       id="path23"
       cx="357.99997"
       cy="355.56464"
       rx="345.33603"
       ry="340.95239" />
  </g>
  <g
     inkscape:groupmode="layer"
     id="layer2"
     inkscape:label="Layer 2">
    <g
       transform="matrix(2.3562689,0,0,2.3562689,-488.53749,-270.43727)"
       id="g870">
      <path
         style="fill:#078080;fill-opacity:1;stroke:none;stroke-width:0.1"
         id="path6"
         d="m 392.1,150.1 c -2.1,0.8 -57.5,55.2 -132.8,130.3 -20.7,20.7 -21.8,22.4 -19.4,29.9 1.1,3.1 18.7,21.7 20.6,21.7 0.4,0 3.2,-1.4 6.1,-3.1 15.2,-8.6 32.3,-0.9 35,15.8 0.7,4.8 -1,11.5 -4.2,16.2 -1.3,2 -2.4,4.2 -2.4,5 0,1.7 15.7,17.8 19.2,19.7 3.3,1.7 9.5,1.8 12.6,0.1 1.3,-0.8 35.6,-34.6 76.2,-75.2 52.6,-52.5 74.3,-74.9 75.1,-77.2 1.9,-5.7 -0.3,-9.8 -10.4,-19.6 -9.2,-8.9 -11.6,-10 -14.8,-7.1 -7,6.3 -21.1,5.4 -28.8,-1.9 -7.8,-7.5 -9.3,-17.9 -3.9,-28.5 l 3.2,-6.2 -8.9,-9.1 c -5,-5 -10.2,-9.7 -11.7,-10.5 -3.1,-1.6 -7.2,-1.7 -10.7,-0.3 z m 14,14.5 6.7,6.6 -2,4.6 c -6.8,15.3 -0.4,32.9 14.8,40.3 5.8,2.9 7.8,3.3 13.8,3.3 5,-0.1 8.5,-0.7 12,-2.3 l 5,-2.2 6.8,6.8 c 3.7,3.7 6.8,7.4 6.8,8.3 0,0.8 -6,7.6 -13.4,14.9 -12.5,12.4 -13.8,13.5 -17.3,13.5 -3.7,0.1 -3.8,0.2 -3.8,3.8 0,3.7 -1.9,5.7 -55.9,59.7 -30.8,30.8 -56.8,56.2 -57.9,56.5 -1.5,0.4 -3.9,-1.3 -9.3,-6.5 l -7.2,-7.1 2.5,-5.5 c 6.7,-14.7 -0.7,-33.7 -15.9,-40.3 -7.4,-3.3 -17.4,-3.3 -24.6,-0.1 l -5.3,2.4 -7,-6.9 c -3.8,-3.8 -6.9,-7.6 -6.9,-8.4 0,-0.9 25.6,-27.2 56.9,-58.4 49.7,-49.4 57.2,-56.6 58.9,-55.7 2.9,1.6 6.5,-1.4 5.9,-4.8 -0.5,-2.3 1.1,-4.2 12.6,-15.9 8.1,-8.1 13.9,-13.2 15.2,-13.2 1.1,0 4.9,2.9 8.6,6.6 z" />
      <path
         style="fill:#078080;fill-opacity:1;stroke:none;stroke-width:0.1"
         id="path8"
         d="m 376.6,198.2 c -2.9,1.6 -1.9,5.7 2.4,10 3,3 4.5,3.9 6.7,3.6 2.2,-0.2 2.9,-0.9 3.1,-3.2 0.3,-2.2 -0.5,-3.7 -3.3,-6.6 -4.1,-4.2 -6.4,-5.2 -8.9,-3.8 z" />
      <path
         style="fill:#078080;fill-opacity:1;stroke:none;stroke-width:0.1"
         id="path10"
         d="m 396.7,218.5 c -2.6,1.9 -2.1,5 1.5,9.1 4.2,4.8 7.5,6 9.9,3.8 2.9,-2.6 2.3,-4.6 -2.3,-9.1 -5.1,-4.8 -6.8,-5.5 -9.1,-3.8 z" />
      <path
         style="fill:#078080;fill-opacity:1;stroke:none;stroke-width:0.1"
         id="path12"
         d="m 416.2,239.2 c -2,2 -1.4,4.5 2,8.4 3.8,4.3 7.2,5.8 9.9,4.4 3.2,-1.8 2.3,-5.4 -2.6,-9.9 -4.6,-4.2 -7.2,-5 -9.3,-2.9 z" />
      <path
         style="fill:#078080;fill-opacity:1;stroke:none;stroke-width:0.1"
         id="path14"
         d="m 360.4,248.8 c -5,4.2 -9.7,8.3 -10.5,8.9 -1.3,1.1 -3.7,0.3 -13.8,-4.3 -6.7,-3.1 -12.4,-5.5 -12.5,-5.3 -0.2,0.2 2,6 5,12.8 l 5.4,12.4 -6.8,7.4 c -3.7,4.1 -7.9,8.9 -9.4,10.7 l -2.6,3.2 9.1,-0.8 c 5.1,-0.4 11.3,-0.9 13.9,-1.2 l 4.7,-0.5 6.6,12 c 3.7,6.5 6.8,11.9 7,11.9 0.5,0 1.6,-4.4 4.5,-17.1 l 2.1,-9.5 12.2,-2.3 c 6.7,-1.3 12.8,-2.7 13.4,-3 0.8,-0.4 -3.4,-3.5 -10.2,-7.5 -6.4,-3.8 -11.7,-7.1 -11.9,-7.5 -0.2,-0.3 0.5,-6.7 1.5,-14.1 1,-7.4 1.7,-13.6 1.5,-13.7 -0.1,-0.2 -4.3,3.2 -9.2,7.5 z m -2.8,19.7 -0.6,5.4 4.7,2.8 4.7,2.7 -5.6,1.4 c -5.6,1.4 -5.6,1.4 -6.3,5.8 -0.3,2.4 -0.9,4.4 -1.3,4.4 -0.4,0 -1.7,-1.8 -3,-4 -2.2,-3.9 -2.4,-4 -7.9,-4 h -5.7 l 3.8,-3.8 3.7,-3.9 -1.7,-4.2 c -0.9,-2.3 -1.4,-4.4 -1.1,-4.7 0.3,-0.3 1.9,0.2 3.6,1 4.3,2.3 6.4,2 9.6,-1.4 1.6,-1.7 3.1,-3 3.3,-3 0.3,0 0.2,2.5 -0.2,5.5 z" />
    </g>
  </g>
</svg>
