<?xml version="1.0" encoding="UTF-8" standalone="no"?>
<svg
   xmlns:dc="http://purl.org/dc/elements/1.1/"
   xmlns:cc="http://creativecommons.org/ns#"
   xmlns:rdf="http://www.w3.org/1999/02/22-rdf-syntax-ns#"
   xmlns:svg="http://www.w3.org/2000/svg"
   xmlns="http://www.w3.org/2000/svg"
   xmlns:sodipodi="http://sodipodi.sourceforge.net/DTD/sodipodi-0.dtd"
   xmlns:inkscape="http://www.inkscape.org/namespaces/inkscape"
   inkscape:version="1.0 (4035a4fb49, 2020-05-01)"
   sodipodi:docname="logo2.svg"
   id="svg36"
   preserveAspectRatio="xMidYMid meet"
   viewBox="0 0 716.000000 716.000000"
   height="716.000000pt"
   width="716.000000pt"
   version="1.0">
  <metadata
     id="metadata42">
    <rdf:RDF>
      <cc:Work
         rdf:about="">
        <dc:format>image/svg+xml</dc:format>
        <dc:type
           rdf:resource="http://purl.org/dc/dcmitype/StillImage" />
        <dc:title></dc:title>
      </cc:Work>
    </rdf:RDF>
  </metadata>
  <defs
     id="defs40" />
  <sodipodi:namedview
     inkscape:current-layer="svg36"
     inkscape:window-maximized="1"
     inkscape:window-y="-8"
     inkscape:window-x="-8"
     inkscape:cy="477.33333"
     inkscape:cx="477.33333"
     inkscape:zoom="0.76990223"
     showgrid="false"
     id="namedview38"
     inkscape:window-height="1017"
     inkscape:window-width="1920"
     inkscape:pageshadow="2"
     inkscape:pageopacity="0"
     guidetolerance="10"
     gridtolerance="10"
     objecttolerance="10"
     borderopacity="1"
     bordercolor="#666666"
     pagecolor="#ffffff" />
  <g
     style="fill:#078080;fill-opacity:1"
     id="g34"
     stroke="none"
     fill="#000000"
     transform="translate(0.000000,716.000000) scale(0.100000,-0.100000)">
    <path
       style="fill:#078080;fill-opacity:1"
       id="path2"
       d="M3345 6964 c-242 -24 -428 -54 -585 -95 -431 -111 -837 -302 -1175 -554 -110 -82 -268 -211 -273 -224 -1 -4 11 -20 27 -35 l29 -28 64 54 c500 423 1056 675 1698 769 177 26 521 36 700 20 452 -40 825 -143 1210 -336 340 -170 588 -350 855 -619 230 -231 402 -458 555 -733 l62 -112 40 20 39 20 -37 67 c-156 285 -285 465 -495 699 -408 450 -960 793 -1557 964 -302 86 -525 118 -862 123 -140 2 -273 2 -295 0z" />
    <path
       style="fill:#078080;fill-opacity:1"
       id="path4"
       d="M3311 6550 c-203 -20 -514 -85 -676 -142 -481 -168 -894 -435 -1223 -791 -434 -467 -681 -998 -774 -1657 -20 -145 -17 -603 5 -755 146 -995 743 -1821 1632 -2259 299 -148 595 -236 950 -282 160 -21 521 -24 680 -5 995 117 1838 699 2301 1586 393 753 438 1654 123 2447 -238 599 -671 1111 -1219 1440 -357 215 -697 336 -1120 399 -155 23 -525 33 -679 19z m544 -90 c341 -32 680 -129 995 -286 310 -155 496 -289 751 -544 109 -109 207 -218 261 -290 317 -426 506 -893 570 -1410 16 -134 16 -535 0 -660 -48 -360 -139 -655 -298 -970 -391 -776 -1133 -1340 -1984 -1510 -220 -44 -334 -55 -580 -55 -247 0 -357 11 -580 57 -735 153 -1385 594 -1805 1223 -233 350 -383 743 -452 1185 -26 164 -26 646 0 805 39 240 108 495 186 688 93 228 256 505 418 707 83 105 322 345 423 427 437 351 940 563 1490 627 140 17 455 20 605 6z" />
    <path
       style="fill:#078080;fill-opacity:1"
       id="path6"
       d="M3921 5659 c-21 -8 -575 -552 -1328 -1303 -207 -207 -218 -224 -194 -299 11 -31 187 -217 206 -217 4 0 32 14 61 31 152 86 323 9 350 -158 7 -48 -10 -115 -42 -162 -13 -20 -24 -42 -24 -50 0 -17 157 -178 192 -197 33 -17 95 -18 126 -1 13 8 356 346 762 752 526 525 743 749 751 772 19 57 -3 98 -104 196 -92 89 -116 100 -148 71 -70 -63 -211 -54 -288 19 -78 75 -93 179 -39 285 l32 62 -89 91 c-50 50 -102 97 -117 105 -31 16 -72 17 -107 3z m140 -145 l67 -66 -20 -46 c-68 -153 -4 -329 148 -403 58 -29 78 -33 138 -33 50 1 85 7 120 23 l50 22 68 -68 c37 -37 68 -74 68 -83 0 -8 -60 -76 -134 -149 -125 -124 -138 -135 -173 -135 -37 -1 -38 -2 -38 -38 0 -37 -19 -57 -559 -597 -308 -308 -568 -562 -579 -565 -15 -4 -39 13 -93 65 l-72 71 25 55 c67 147 -7 337 -159 403 -74 33 -174 33 -246 1 l-53 -24 -70 69 c-38 38 -69 76 -69 84 0 9 256 272 569 584 497 494 572 566 589 557 29 -16 65 14 59 48 -5 23 11 42 126 159 81 81 139 132 152 132 11 0 49 -29 86 -66z" />
    <path
       style="fill:#078080;fill-opacity:1"
       id="path8"
       d="M3766 5178 c-29 -16 -19 -57 24 -100 30 -30 45 -39 67 -36 22 2 29 9 31 32 3 22 -5 37 -33 66 -41 42 -64 52 -89 38z" />
    <path
       style="fill:#078080;fill-opacity:1"
       id="path10"
       d="M3967 4975 c-26 -19 -21 -50 15 -91 42 -48 75 -60 99 -38 29 26 23 46 -23 91 -51 48 -68 55 -91 38z" />
    <path
       style="fill:#078080;fill-opacity:1"
       id="path12"
       d="M4162 4768 c-20 -20 -14 -45 20 -84 38 -43 72 -58 99 -44 32 18 23 54 -26 99 -46 42 -72 50 -93 29z" />
    <path
       style="fill:#078080;fill-opacity:1"
       id="path14"
       d="M3604 4672 c-50 -42 -97 -83 -105 -89 -13 -11 -37 -3 -138 43 -67 31 -124 55 -125 53 -2 -2 20 -60 50 -128 l54 -124 -68 -74 c-37 -41 -79 -89 -94 -107 l-26 -32 91 8 c51 4 113 9 139 12 l47 5 66 -120 c37 -65 68 -119 70 -119 5 0 16 44 45 171 l21 95 122 23 c67 13 128 27 134 30 8 4 -34 35 -102 75 -64 38 -117 71 -119 75 -2 3 5 67 15 141 10 74 17 136 15 137 -1 2 -43 -32 -92 -75z m-28 -197 l-6 -54 47 -28 47 -27 -56 -14 c-56 -14 -56 -14 -63 -58 -3 -24 -9 -44 -13 -44 -4 0 -17 18 -30 40 -22 39 -24 40 -79 40 l-57 0 38 38 37 39 -17 42 c-9 23 -14 44 -11 47 3 3 19 -2 36 -10 43 -23 64 -20 96 14 16 17 31 30 33 30 3 0 2 -25 -2 -55z" />
    <path
       style="fill:#078080;fill-opacity:1"
       id="path16"
       d="M2011 2800 c-79 -19 -128 -88 -112 -160 13 -58 32 -76 141 -129 100 -49 120 -71 107 -123 -14 -54 -89 -62 -173 -18 -64 34 -84 33 -84 -5 0 -53 65 -85 175 -85 72 0 120 22 153 71 20 28 23 43 20 87 -6 68 -34 97 -146 152 -117 57 -137 86 -87 135 31 32 65 32 134 0 61 -29 81 -27 81 8 0 34 -28 55 -90 67 -59 11 -71 11 -119 0z" />
    <path
       style="fill:#078080;fill-opacity:1"
       id="path18"
       d="M3985 2804 c-19 -5 -20 -12 -17 -205 2 -113 -1 -220 -7 -247 -9 -40 -8 -49 7 -60 23 -18 72 -7 94 19 14 17 17 32 12 74 -6 52 -6 54 25 73 18 11 60 25 93 32 107 21 162 100 139 201 -19 85 -67 111 -216 115 -60 1 -119 0 -130 -2z m232 -88 c17 -20 23 -39 23 -75 0 -63 -29 -92 -100 -99 -71 -7 -80 4 -80 95 0 105 8 116 78 111 45 -4 60 -10 79 -32z" />
    <path
       style="fill:#078080;fill-opacity:1"
       id="path20"
       d="M2447 2755 c-9 -8 -18 -29 -22 -46 -4 -18 -19 -42 -34 -55 l-26 -22 24 -26 c22 -24 25 -37 31 -146 5 -107 8 -122 29 -144 30 -32 71 -41 116 -26 50 16 48 46 -4 60 -21 5 -42 17 -45 26 -3 9 -6 57 -6 108 0 94 8 116 41 116 22 0 51 28 43 41 -3 5 -21 16 -39 23 -26 11 -36 23 -45 54 -5 22 -17 43 -26 46 -21 8 -20 8 -37 -9z" />
    <path
       style="fill:#078080;fill-opacity:1"
       id="path22"
       d="M2847 2649 c-58 -14 -77 -27 -77 -53 0 -34 17 -36 87 -13 51 17 67 19 88 9 22 -10 26 -18 23 -45 -3 -30 -6 -33 -53 -40 -126 -22 -170 -56 -169 -131 1 -32 8 -46 34 -69 31 -27 36 -29 89 -22 58 7 106 8 166 4 50 -4 58 9 40 60 -9 26 -15 78 -15 130 0 95 -19 144 -63 160 -40 16 -110 20 -150 10z m121 -235 c4 -52 -16 -74 -65 -74 -83 0 -99 84 -23 113 8 3 31 5 50 4 33 -2 35 -4 38 -43z" />
    <path
       style="fill:#078080;fill-opacity:1"
       id="path24"
       d="M3625 2644 c-22 -9 -47 -18 -56 -20 -9 -3 -39 1 -67 10 -36 10 -67 13 -99 8 -27 -4 -66 -5 -88 -1 -64 11 -65 10 -65 -121 0 -64 -3 -138 -6 -163 -6 -44 -5 -47 22 -57 20 -8 35 -8 51 -1 22 10 23 17 23 103 0 51 5 109 10 129 16 59 85 76 111 28 6 -12 9 -68 8 -135 -3 -130 2 -139 61 -128 19 3 36 7 37 8 7 6 6 47 -1 98 -10 69 -1 142 20 163 20 20 68 19 85 -2 9 -10 16 -56 20 -131 4 -98 8 -117 25 -129 34 -25 92 2 78 37 -3 8 -9 67 -13 130 -4 63 -13 125 -19 137 -24 43 -80 58 -137 37z" />
    <path
       style="fill:#078080;fill-opacity:1"
       id="path26"
       d="M4581 2650 c-44 -11 -81 -39 -106 -80 -26 -46 -26 -150 0 -205 37 -76 152 -108 235 -65 121 62 130 264 15 331 -37 22 -99 30 -144 19z m102 -76 c46 -46 49 -164 6 -210 -32 -34 -90 -33 -117 1 -42 53 -39 169 4 212 31 31 74 30 107 -3z" />
    <path
       style="fill:#078080;fill-opacity:1"
       id="path28"
       d="M5103 2639 c-48 -19 -54 -19 -82 -4 -18 9 -41 13 -55 9 -23 -5 -23 -6 -18 -119 3 -72 0 -131 -7 -161 -11 -43 -11 -50 6 -62 17 -12 77 -11 91 3 3 2 4 59 3 125 -2 117 -2 120 24 145 32 33 71 30 99 -8 18 -25 21 -44 23 -144 1 -63 4 -117 8 -121 3 -4 24 -7 46 -7 42 0 64 19 53 45 -6 13 -22 173 -23 232 -1 27 -53 76 -86 82 -18 3 -51 -3 -82 -15z" />
    <path
       style="fill:#078080;fill-opacity:1"
       id="path30"
       d="M843 5568 c-99 -131 -224 -344 -312 -530 -365 -770 -420 -1679 -151 -2488 169 -509 435 -944 805 -1316 274 -275 554 -479 891 -647 99 -50 285 -129 290 -124 2 2 10 20 19 40 15 36 15 38 -7 46 -811 314 -1497 986 -1828 1791 -132 321 -211 649 -240 998 -16 177 -8 523 15 687 72 525 252 994 547 1427 l80 117 -28 25 c-16 14 -32 26 -35 26 -4 0 -24 -24 -46 -52z" />
    <path
       style="fill:#078080;fill-opacity:1"
       id="path32"
       d="M6763 4509 l-31 -9 14 -48 c25 -82 73 -333 90 -472 21 -166 24 -548 6 -705 -48 -422 -154 -782 -336 -1145 -405 -806 -1119 -1407 -1986 -1669 -160 -49 -384 -95 -564 -118 -190 -24 -567 -23 -751 2 -77 10 -158 19 -180 19 -38 1 -40 0 -46 -36 -7 -43 -10 -41 96 -57 168 -25 284 -33 490 -33 445 0 839 72 1238 228 292 114 636 312 882 509 130 103 419 393 521 520 267 336 489 766 607 1175 169 583 174 1222 16 1813 -10 39 -15 41 -66 26z" />
  </g>
</svg>
