<?xml version="1.0" encoding="UTF-8" standalone="no"?>
<svg
   xmlns:dc="http://purl.org/dc/elements/1.1/"
   xmlns:cc="http://creativecommons.org/ns#"
   xmlns:rdf="http://www.w3.org/1999/02/22-rdf-syntax-ns#"
   xmlns:svg="http://www.w3.org/2000/svg"
   xmlns="http://www.w3.org/2000/svg"
   xmlns:sodipodi="http://sodipodi.sourceforge.net/DTD/sodipodi-0.dtd"
   xmlns:inkscape="http://www.inkscape.org/namespaces/inkscape"
   version="1.0"
   width="505.97348pt"
   height="126.67538pt"
   viewBox="0 0 505.97348 126.67538"
   preserveAspectRatio="xMidYMid meet"
   id="svg36"
   sodipodi:docname="title.svg"
   inkscape:version="1.0 (4035a4fb49, 2020-05-01)">
  <metadata
     id="metadata42">
    <rdf:RDF>
      <cc:Work
         rdf:about="">
        <dc:format>image/svg+xml</dc:format>
        <dc:type
           rdf:resource="http://purl.org/dc/dcmitype/StillImage" />
        <dc:title></dc:title>
      </cc:Work>
    </rdf:RDF>
  </metadata>
  <defs
     id="defs40" />
  <sodipodi:namedview
     lock-margins="true"
     fit-margin-bottom="0"
     fit-margin-right="0"
     fit-margin-left="0"
     fit-margin-top="0"
     inkscape:document-rotation="0"
     pagecolor="#ffffff"
     bordercolor="#666666"
     borderopacity="1"
     objecttolerance="10"
     gridtolerance="10"
     guidetolerance="10"
     inkscape:pageopacity="0"
     inkscape:pageshadow="2"
     inkscape:window-width="1620"
     inkscape:window-height="967"
     id="namedview38"
     showgrid="false"
     inkscape:zoom="0.76990223"
     inkscape:cx="224.47787"
     inkscape:cy="325.75349"
     inkscape:window-x="182"
     inkscape:window-y="34"
     inkscape:window-maximized="0"
     inkscape:current-layer="svg36" />
  <g
     style="fill:#232323;fill-opacity:1"
     transform="matrix(0.53268343,0,0,0.53268343,-127.30865,-79.433753)"
     id="g867">
    <path
       d="m 392.1,150.1 c -2.1,0.8 -57.5,55.2 -132.8,130.3 -20.7,20.7 -21.8,22.4 -19.4,29.9 1.1,3.1 18.7,21.7 20.6,21.7 0.4,0 3.2,-1.4 6.1,-3.1 15.2,-8.6 32.3,-0.9 35,15.8 0.7,4.8 -1,11.5 -4.2,16.2 -1.3,2 -2.4,4.2 -2.4,5 0,1.7 15.7,17.8 19.2,19.7 3.3,1.7 9.5,1.8 12.6,0.1 1.3,-0.8 35.6,-34.6 76.2,-75.2 52.6,-52.5 74.3,-74.9 75.1,-77.2 1.9,-5.7 -0.3,-9.8 -10.4,-19.6 -9.2,-8.9 -11.6,-10 -14.8,-7.1 -7,6.3 -21.1,5.4 -28.8,-1.9 -7.8,-7.5 -9.3,-17.9 -3.9,-28.5 l 3.2,-6.2 -8.9,-9.1 c -5,-5 -10.2,-9.7 -11.7,-10.5 -3.1,-1.6 -7.2,-1.7 -10.7,-0.3 z m 14,14.5 6.7,6.6 -2,4.6 c -6.8,15.3 -0.4,32.9 14.8,40.3 5.8,2.9 7.8,3.3 13.8,3.3 5,-0.1 8.5,-0.7 12,-2.3 l 5,-2.2 6.8,6.8 c 3.7,3.7 6.8,7.4 6.8,8.3 0,0.8 -6,7.6 -13.4,14.9 -12.5,12.4 -13.8,13.5 -17.3,13.5 -3.7,0.1 -3.8,0.2 -3.8,3.8 0,3.7 -1.9,5.7 -55.9,59.7 -30.8,30.8 -56.8,56.2 -57.9,56.5 -1.5,0.4 -3.9,-1.3 -9.3,-6.5 l -7.2,-7.1 2.5,-5.5 c 6.7,-14.7 -0.7,-33.7 -15.9,-40.3 -7.4,-3.3 -17.4,-3.3 -24.6,-0.1 l -5.3,2.4 -7,-6.9 c -3.8,-3.8 -6.9,-7.6 -6.9,-8.4 0,-0.9 25.6,-27.2 56.9,-58.4 49.7,-49.4 57.2,-56.6 58.9,-55.7 2.9,1.6 6.5,-1.4 5.9,-4.8 -0.5,-2.3 1.1,-4.2 12.6,-15.9 8.1,-8.1 13.9,-13.2 15.2,-13.2 1.1,0 4.9,2.9 8.6,6.6 z"
       id="path6"
       style="fill:#232323;fill-opacity:1;stroke:none;stroke-width:0.1" />
    <path
       d="m 376.6,198.2 c -2.9,1.6 -1.9,5.7 2.4,10 3,3 4.5,3.9 6.7,3.6 2.2,-0.2 2.9,-0.9 3.1,-3.2 0.3,-2.2 -0.5,-3.7 -3.3,-6.6 -4.1,-4.2 -6.4,-5.2 -8.9,-3.8 z"
       id="path8"
       style="fill:#232323;fill-opacity:1;stroke:none;stroke-width:0.1" />
    <path
       d="m 396.7,218.5 c -2.6,1.9 -2.1,5 1.5,9.1 4.2,4.8 7.5,6 9.9,3.8 2.9,-2.6 2.3,-4.6 -2.3,-9.1 -5.1,-4.8 -6.8,-5.5 -9.1,-3.8 z"
       id="path10"
       style="fill:#232323;fill-opacity:1;stroke:none;stroke-width:0.1" />
    <path
       d="m 416.2,239.2 c -2,2 -1.4,4.5 2,8.4 3.8,4.3 7.2,5.8 9.9,4.4 3.2,-1.8 2.3,-5.4 -2.6,-9.9 -4.6,-4.2 -7.2,-5 -9.3,-2.9 z"
       id="path12"
       style="fill:#232323;fill-opacity:1;stroke:none;stroke-width:0.1" />
    <path
       d="m 360.4,248.8 c -5,4.2 -9.7,8.3 -10.5,8.9 -1.3,1.1 -3.7,0.3 -13.8,-4.3 -6.7,-3.1 -12.4,-5.5 -12.5,-5.3 -0.2,0.2 2,6 5,12.8 l 5.4,12.4 -6.8,7.4 c -3.7,4.1 -7.9,8.9 -9.4,10.7 l -2.6,3.2 9.1,-0.8 c 5.1,-0.4 11.3,-0.9 13.9,-1.2 l 4.7,-0.5 6.6,12 c 3.7,6.5 6.8,11.9 7,11.9 0.5,0 1.6,-4.4 4.5,-17.1 l 2.1,-9.5 12.2,-2.3 c 6.7,-1.3 12.8,-2.7 13.4,-3 0.8,-0.4 -3.4,-3.5 -10.2,-7.5 -6.4,-3.8 -11.7,-7.1 -11.9,-7.5 -0.2,-0.3 0.5,-6.7 1.5,-14.1 1,-7.4 1.7,-13.6 1.5,-13.7 -0.1,-0.2 -4.3,3.2 -9.2,7.5 z m -2.8,19.7 -0.6,5.4 4.7,2.8 4.7,2.7 -5.6,1.4 c -5.6,1.4 -5.6,1.4 -6.3,5.8 -0.3,2.4 -0.9,4.4 -1.3,4.4 -0.4,0 -1.7,-1.8 -3,-4 -2.2,-3.9 -2.4,-4 -7.9,-4 h -5.7 l 3.8,-3.8 3.7,-3.9 -1.7,-4.2 c -0.9,-2.3 -1.4,-4.4 -1.1,-4.7 0.3,-0.3 1.9,0.2 3.6,1 4.3,2.3 6.4,2 9.6,-1.4 1.6,-1.7 3.1,-3 3.3,-3 0.3,0 0.2,2.5 -0.2,5.5 z"
       id="path14"
       style="fill:#232323;fill-opacity:1;stroke:none;stroke-width:0.1" />
  </g>
  <g
     transform="translate(-87.027596,-294.01579)"
     id="g864">
    <path
       d="m 264.41973,331.76598 c -7.9,1.9 -12.8,8.8 -11.2,16 1.3,5.8 3.2,7.6 14.1,12.9 10,4.9 12,7.1 10.7,12.3 -1.4,5.4 -8.9,6.2 -17.3,1.8 -6.4,-3.4 -8.4,-3.3 -8.4,0.5 0,5.3 6.5,8.5 17.5,8.5 7.2,0 12,-2.2 15.3,-7.1 2,-2.8 2.3,-4.3 2,-8.7 -0.6,-6.8 -3.4,-9.7 -14.6,-15.2 -11.7,-5.7 -13.7,-8.6 -8.7,-13.5 3.1,-3.2 6.5,-3.2 13.4,0 6.1,2.9 8.1,2.7 8.1,-0.8 0,-3.4 -2.8,-5.5 -9,-6.7 -5.9,-1.1 -7.1,-1.1 -11.9,0 z"
       id="path16"
       style="fill:#232323;fill-opacity:1;stroke:none;stroke-width:0.1" />
    <path
       d="m 461.81973,331.36598 c -1.9,0.5 -2,1.2 -1.7,20.5 0.2,11.3 -0.1,22 -0.7,24.7 -0.9,4 -0.8,4.9 0.7,6 2.3,1.8 7.2,0.7 9.4,-1.9 1.4,-1.7 1.7,-3.2 1.2,-7.4 -0.6,-5.2 -0.6,-5.4 2.5,-7.3 1.8,-1.1 6,-2.5 9.3,-3.2 10.7,-2.1 16.2,-10 13.9,-20.1 -1.9,-8.5 -6.7,-11.1 -21.6,-11.5 -6,-0.1 -11.9,0 -13,0.2 z m 23.2,8.8 c 1.7,2 2.3,3.9 2.3,7.5 0,6.3 -2.9,9.2 -10,9.9 -7.1,0.7 -8,-0.4 -8,-9.5 0,-10.5 0.8,-11.6 7.8,-11.1 4.5,0.4 6,1 7.9,3.2 z"
       id="path18"
       style="fill:#232323;fill-opacity:1;stroke:none;stroke-width:0.1" />
    <path
       d="m 308.01973,336.26598 c -0.9,0.8 -1.8,2.9 -2.2,4.6 -0.4,1.8 -1.9,4.2 -3.4,5.5 l -2.6,2.2 2.4,2.6 c 2.2,2.4 2.5,3.7 3.1,14.6 0.5,10.7 0.8,12.2 2.9,14.4 3,3.2 7.1,4.1 11.6,2.6 5,-1.6 4.8,-4.6 -0.4,-6 -2.1,-0.5 -4.2,-1.7 -4.5,-2.6 -0.3,-0.9 -0.6,-5.7 -0.6,-10.8 0,-9.4 0.8,-11.6 4.1,-11.6 2.2,0 5.1,-2.8 4.3,-4.1 -0.3,-0.5 -2.1,-1.6 -3.9,-2.3 -2.6,-1.1 -3.6,-2.3 -4.5,-5.4 -0.5,-2.2 -1.7,-4.3 -2.6,-4.6 -2.1,-0.8 -2,-0.8 -3.7,0.9 z"
       id="path20"
       style="fill:#232323;fill-opacity:1;stroke:none;stroke-width:0.1" />
    <path
       d="m 348.01973,346.86598 c -5.8,1.4 -7.7,2.7 -7.7,5.3 0,3.4 1.7,3.6 8.7,1.3 5.1,-1.7 6.7,-1.9 8.8,-0.9 2.2,1 2.6,1.8 2.3,4.5 -0.3,3 -0.6,3.3 -5.3,4 -12.6,2.2 -17,5.6 -16.9,13.1 0.1,3.2 0.8,4.6 3.4,6.9 3.1,2.7 3.6,2.9 8.9,2.2 5.8,-0.7 10.6,-0.8 16.6,-0.4 5,0.4 5.8,-0.9 4,-6 -0.9,-2.6 -1.5,-7.8 -1.5,-13 0,-9.5 -1.9,-14.4 -6.3,-16 -4,-1.6 -11,-2 -15,-1 z m 12.1,23.5 c 0.4,5.2 -1.6,7.4 -6.5,7.4 -8.3,0 -9.9,-8.4 -2.3,-11.3 0.8,-0.3 3.1,-0.5 5,-0.4 3.3,0.2 3.5,0.4 3.8,4.3 z"
       id="path22"
       style="fill:#232323;fill-opacity:1;stroke:none;stroke-width:0.1" />
    <path
       d="m 425.81973,347.36598 c -2.2,0.9 -4.7,1.8 -5.6,2 -0.9,0.3 -3.9,-0.1 -6.7,-1 -3.6,-1 -6.7,-1.3 -9.9,-0.8 -2.7,0.4 -6.6,0.5 -8.8,0.1 -6.4,-1.1 -6.5,-1 -6.5,12.1 0,6.4 -0.3,13.8 -0.6,16.3 -0.6,4.4 -0.5,4.7 2.2,5.7 2,0.8 3.5,0.8 5.1,0.1 2.2,-1 2.3,-1.7 2.3,-10.3 0,-5.1 0.5,-10.9 1,-12.9 1.6,-5.9 8.5,-7.6 11.1,-2.8 0.6,1.2 0.9,6.8 0.8,13.5 -0.3,13 0.2,13.9 6.1,12.8 1.9,-0.3 3.6,-0.7 3.7,-0.8 0.7,-0.6 0.6,-4.7 -0.1,-9.8 -1,-6.9 -0.1,-14.2 2,-16.3 2,-2 6.8,-1.9 8.5,0.2 0.9,1 1.6,5.6 2,13.1 0.4,9.8 0.8,11.7 2.5,12.9 3.4,2.5 9.2,-0.2 7.8,-3.7 -0.3,-0.8 -0.9,-6.7 -1.3,-13 -0.4,-6.3 -1.3,-12.5 -1.9,-13.7 -2.4,-4.3 -8,-5.8 -13.7,-3.7 z"
       id="path24"
       style="fill:#232323;fill-opacity:1;stroke:none;stroke-width:0.1" />
    <path
       d="m 521.41973,346.76598 c -4.4,1.1 -8.1,3.9 -10.6,8 -2.6,4.6 -2.6,15 0,20.5 3.7,7.6 15.2,10.8 23.5,6.5 12.1,-6.2 13,-26.4 1.5,-33.1 -3.7,-2.2 -9.9,-3 -14.4,-1.9 z m 10.2,7.6 c 4.6,4.6 4.9,16.4 0.6,21 -3.2,3.4 -9,3.3 -11.7,-0.1 -4.2,-5.3 -3.9,-16.9 0.4,-21.2 3.1,-3.1 7.4,-3 10.7,0.3 z"
       id="path26"
       style="fill:#232323;fill-opacity:1;stroke:none;stroke-width:0.1" />
    <path
       d="m 573.61973,347.86598 c -4.8,1.9 -5.4,1.9 -8.2,0.4 -1.8,-0.9 -4.1,-1.3 -5.5,-0.9 -2.3,0.5 -2.3,0.6 -1.8,11.9 0.3,7.2 0,13.1 -0.7,16.1 -1.1,4.3 -1.1,5 0.6,6.2 1.7,1.2 7.7,1.1 9.1,-0.3 0.3,-0.2 0.4,-5.9 0.3,-12.5 -0.2,-11.7 -0.2,-12 2.4,-14.5 3.2,-3.3 7.1,-3 9.9,0.8 1.8,2.5 2.1,4.4 2.3,14.4 0.1,6.3 0.4,11.7 0.8,12.1 0.3,0.4 2.4,0.7 4.6,0.7 4.2,0 6.4,-1.9 5.3,-4.5 -0.6,-1.3 -2.2,-17.3 -2.3,-23.2 -0.1,-2.7 -5.3,-7.6 -8.6,-8.2 -1.8,-0.3 -5.1,0.3 -8.2,1.5 z"
       id="path28"
       style="fill:#232323;fill-opacity:1;stroke:none;stroke-width:0.1" />
  </g>
</svg>
